# xmcd
#
# Track frame offsets:
#	150
#	15803
#	37380
#	52476
#	70681
#	89783
#	108980
#
# Disc length: 1656 seconds
#
# Revision: 0
# Processed by: cddbd v1.5.2PL0 Copyright (c) Steve Scherf et al.
# Submitted via: audiograbber 1.83.01
#
DISCID=60067607
DTITLE=Toni Pollard - This Fire
DYEAR=2007
DGENRE=Blues
TTITLE0=Salts Of the Earth
TTITLE1=Make Up Your Mind
TTITLE2=Too Early Too late
TTITLE3=Touch The Sky
TTITLE4=This Fire
TTITLE5=Stand Your Ground
TTITLE6=Take It Back
EXTD=
EXTT0=
EXTT1=
EXTT2=
EXTT3=
EXTT4=
EXTT5=
EXTT6=
PLAYORDER=
